<?xml version="1.0" encoding="utf-8"?>
<!-- Svg Vector Icons : http://www.onlinewebfonts.com/icon -->
<!DOCTYPE svg PUBLIC "-//W3C//DTD SVG 1.1//EN" "http://www.w3.org/Graphics/SVG/1.1/DTD/svg11.dtd">
<svg version="1.1" xmlns="http://www.w3.org/2000/svg" xmlns:xlink="http://www.w3.org/1999/xlink" x="0px" y="0px" viewBox="0 0 256 256" enable-background="new 0 0 256 256" xml:space="preserve">
<metadata> Svg Vector Icons : http://www.onlinewebfonts.com/icon </metadata>
<g><g><g><g id="_x31__26_"><g><path fill="#FF8A65" d="M172.3,120.6h-36.9V83.8c0-4.1-3.3-7.4-7.4-7.4c-4.1,0-7.4,3.3-7.4,7.4v36.9H83.8c-4.1,0-7.4,3.3-7.4,7.4c0,4.1,3.3,7.4,7.4,7.4h36.9v36.9c0,4.1,3.3,7.4,7.4,7.4c4.1,0,7.4-3.3,7.4-7.4v-36.9h36.9c4.1,0,7.4-3.3,7.4-7.4C179.6,123.9,176.3,120.6,172.3,120.6z M216.5,10h-177C23.2,10,10,23.2,10,39.5v177c0,16.3,13.2,29.5,29.5,29.5h177c16.3,0,29.5-13.2,29.5-29.5v-177C246,23.2,232.8,10,216.5,10z M231.3,216.5c0,8.1-6.6,14.8-14.8,14.8h-177c-8.1,0-14.8-6.6-14.8-14.8v-177c0-8.1,6.6-14.8,14.8-14.8h177c8.1,0,14.8,6.6,14.8,14.8V216.5z"/></g></g></g><g></g><g></g><g></g><g></g><g></g><g></g><g></g><g></g><g></g><g></g><g></g><g></g><g></g><g></g><g></g></g></g>
</svg>